<svg xmlns="http://www.w3.org/2000/svg" viewBox="0 0 354.98 37.65"><title>Chubb logo - Brandlogos.net</title><path d="M413.64,508.56V493.17h-7.1v37.65h7.1V515.17h37.92v15.65h7.1V493.17h-7.1v15.38Zm-27.81-8.66v-6.72H344.14c-6.4,0-9.63,3.28-9.63,8.6v20.44c0,5.32,3.23,8.6,9.63,8.6h41.69V524.1H341.77V499.9Z" transform="translate(-334.51 -493.17)"/><path d="M527.63,493.17V524.1H490.24V493.17h-7.1v29c0,5.32,3.22,8.6,9.63,8.6H525.1c6.4,0,9.63-3.28,9.63-8.6v-29Z" transform="translate(-334.51 -493.17)"/><path d="M605.84,524.43H566.3V515h39.54ZM566.3,499.57h39.54v9.14H566.3Zm36.58,31.25c7,0,10.22-2.9,10.22-7.9v-4.41a3.3,3.3,0,0,0-1.51-2.9l-4.52-3.88,4.52-3.87a3.3,3.3,0,0,0,1.51-2.9v-3.88c0-5-3.23-7.9-10.22-7.9H559.2v37.65Z" transform="translate(-334.51 -493.17)"/><path d="M682.23,524.43H642.69V515h39.54Zm-39.54-24.85h39.54v9.14H642.69Zm36.58,31.25c7,0,10.22-2.9,10.22-7.9v-4.41a3.31,3.31,0,0,0-1.5-2.9l-4.52-3.88,4.52-3.87a3.3,3.3,0,0,0,1.5-2.9v-3.88c0-5-3.22-7.9-10.22-7.9H635.59v37.65Z" transform="translate(-334.51 -493.17)"/></svg>