<?xml version="1.0" encoding="UTF-8"?>
<svg id="SVGRoot" width="500" height="126.94" version="1.1" viewBox="0 0 500 126.94122" xmlns="http://www.w3.org/2000/svg" xmlns:cc="http://creativecommons.org/ns#" xmlns:dc="http://purl.org/dc/elements/1.1/" xmlns:rdf="http://www.w3.org/1999/02/22-rdf-syntax-ns#"><metadata><rdf:RDF><cc:Work rdf:about=""><dc:format>image/svg+xml</dc:format><dc:type rdf:resource="http://purl.org/dc/dcmitype/StillImage"/><dc:title/></cc:Work></rdf:RDF></metadata><g transform="translate(-212.38 -51.521)" stroke-width="1.3904"><g fill="#000000"><path d="m324.88 121.74c0 3.1979 1.3904 4.1711 6.1176 4.1711 4.7273 0 6.9519-1.3904 10.011-7.7861h1.1123l-1.1123 10.011h-29.476v-1.1123c4.4492-1.1123 4.8663-2.0856 4.8663-6.2567v-24.749c0-3.4759-0.83423-4.4492-4.8663-5.4225v-1.1123h18.214v1.1123c-3.893 0.97326-4.8663 1.8075-4.8663 5.1444z"/><path d="m354.5 122.71c0 2.5027 1.2513 3.893 4.0321 4.1711v1.1123h-15.711v-0.97326c3.3369-0.69519 4.1711-1.5294 4.1711-4.7273v-13.348c0-3.0588-0.83422-3.893-4.4492-4.5882v-1.1123l10.845-0.97326h1.1123zm-3.754-35.872c2.3636 0 4.3102 1.9465 4.3102 4.3102s-1.9465 4.3102-4.3102 4.3102-4.3102-1.9465-4.3102-4.3102 1.9465-4.3102 4.3102-4.3102"/><path d="m370.76 108.53c2.5027-2.3636 3.893-2.9198 5.8396-2.9198 4.4492 0 7.369 4.1711 7.369 10.289 0 8.0642-3.754 11.401-9.1765 11.401-2.9198 0-3.893-1.2513-3.893-4.1711v-14.599zm0-21.69h-1.1123l-10.15 0.69519v1.1123c2.3636 0.41711 3.754 1.5294 3.754 3.754v35.733c3.754 0.69519 7.508 0.97326 12.096 0.97326 12.096 0 16.824-6.3957 16.824-14.043 0-7.23-5.1444-12.93-11.818-12.93-3.615 0-6.5348 1.3904-9.5936 4.5882z"/><path d="m403.16 112c0.13904-4.7273 2.2246-7.9251 5.2834-7.9251 3.0588 0 5.2834 3.3369 5.5615 7.9251zm18.909 1.5294c-0.97326-6.8128-5.9786-11.262-13.07-11.262-7.7861 0-13.904 5.8396-13.904 13.626 0 7.6471 5.8396 13.209 13.626 13.209 5.9786 0 11.123-3.3369 13.348-8.6203h-1.1123c-2.3636 3.615-5.2834 5.4225-8.8984 5.4225-4.5882 0-9.1765-4.1711-8.8984-12.374z"/><path d="m445.85 111.86c-2.2246-2.0856-3.893-3.1979-5.5615-3.1979-2.2246 0-3.615 0.97326-5.5615 3.615v10.15c0 2.9198 0.55615 3.893 4.1711 4.5882v1.1123h-15.85v-1.1123c3.3369-0.83422 4.1711-1.8075 4.1711-4.5882v-13.07c0-3.1979-1.3904-4.5882-4.5882-4.8663v-1.1123l10.845-0.97326h1.1123v7.9251h0.13903c2.5027-5.4225 5.1444-7.9251 8.2032-7.9251 1.6684 0 3.1979 0.69519 4.4492 2.0856z"/><path d="m487.97 103.24v1.1123c3.1979 0.69519 3.893 2.6417 1.6684 7.9251l-3.4759 7.9251-5.2834-10.845c-1.5294-3.1979-1.5294-4.5882 1.2513-5.0054v-1.1123h-22.107v-9.5936h-1.1123c-3.4759 4.4492-7.6471 8.4813-10.706 10.428v1.2513h4.4492v15.989c0 5.7005 3.754 7.9251 8.4813 7.9251 3.754 0 6.1176-1.2513 7.9251-4.4492l-0.83423-0.69519c-1.2513 1.3904-2.3636 1.9465-3.615 1.9465-3.4759 0-4.5882-2.3636-4.5882-6.3957v-14.46h6.6738c3.615 0 4.7273 1.2513 6.2567 4.7273l9.0374 19.187c-3.0588 8.2032-5.7005 11.54-10.289 11.54-0.97326 0-1.8075 0-3.3369-0.55615l-1.5294 7.508c0.97326 0.13903 1.3904 0.13903 2.0856 0.13903 5.1444 0 7.9251-2.2246 10.567-8.2032l12.513-28.642c2.0856-4.5882 2.7808-5.5615 5.9786-6.3957v-1.1123h-10.011z"/><path d="m559.99 121.18c0.41712 3.3369 2.0856 5.2834 5.8396 5.9786v1.1123h-19.048v-1.1123c4.1711-1.1123 5.0054-3.4759 4.1711-8.4813l-3.1979-22.107h-0.13904l-12.513 31.701h-1.3904l-12.374-31.701h-0.13904l-3.3369 22.663c-0.69519 4.4492 0.13904 7.508 4.5882 7.7861v1.1123h-14.043v-1.1123c4.1711-0.13904 5.9786-2.5027 6.8128-8.4813l3.893-25.166c-1.5294-1.5294-3.615-2.6417-5.5615-2.6417v-1.1123h13.904l10.15 25.444 10.289-25.444h13.07v1.2513c-3.893 0.69519-4.8663 2.7808-4.3102 6.2567z"/><path d="m568.89 108.94c0-2.7808-0.97326-3.754-3.893-4.3102v-1.1123l10.289-0.97326h1.1123v18.353c0 2.9198 1.9465 4.3102 4.5882 4.3102 2.5027 0 4.0321-1.1123 6.2567-4.4492v-12.374c0-2.0856-1.3904-3.1979-3.893-3.754v-1.1123l10.289-0.97326h1.1123v19.743c0 3.3369 0.69519 4.0321 4.0321 5.0054v1.1123l-11.401 0.97326v-6.1176h-0.13904c-2.7808 4.1711-5.8396 6.1176-9.8717 6.1176-5.1444 0-8.2032-2.7808-8.2032-7.6471v-12.791z"/><path d="m604.35 105.47h-4.4492v-1.2513c3.0588-1.9465 7.23-5.8396 10.706-10.428h1.2513v9.5936h8.2032v1.9465h-8.2032v14.321c0 4.0321 1.1123 6.3957 4.5882 6.3957 1.2513 0 2.5027-0.55615 3.615-1.9465l0.83423 0.69519c-1.8075 3.0588-4.3102 4.4492-7.9251 4.4492-4.7273 0-8.4813-2.2246-8.4813-7.9251v-15.85z"/><path d="m624.79 108.94c0-2.7808-0.97327-3.754-3.893-4.3102v-1.1123l10.289-0.97326h1.1123v18.353c0 2.9198 1.9465 4.3102 4.5882 4.3102 2.5027 0 4.0321-1.1123 6.2567-4.4492v-12.374c0-2.0856-1.2513-3.1979-3.893-3.754v-1.1123l10.289-0.97326h1.1123v19.743c0 3.3369 0.69519 4.0321 3.893 5.0054v1.1123l-11.401 0.97326v-6.1176h-0.13904c-2.7808 4.1711-5.8396 6.1176-9.8717 6.1176-5.1444 0-8.2032-2.7808-8.2032-7.6471v-12.791z"/><path d="m671.5 124.1c-1.6684 1.6684-3.1979 2.6417-4.7273 2.6417-2.0856 0-3.4759-1.8075-3.4759-4.4492 0-3.3369 1.9465-4.8663 8.0642-7.508v9.3155zm7.508-12.374c0-6.8128-5.5615-9.3155-10.984-9.3155-5.8396 0-9.8717 3.0588-11.123 8.4813h0.97326c1.5294-2.7807 4.0321-4.1711 7.508-4.1711 4.4492 0 6.2567 2.0856 6.2567 6.5348-6.1176 2.2246-15.989 2.7808-15.989 9.4546 0 3.615 3.3369 6.5348 7.508 6.5348 3.0588 0 5.2834-0.69519 7.7861-2.9198l0.55615-0.55615c1.2513 2.5027 2.9198 3.4759 5.9786 3.4759 3.615 0 5.8396-1.6684 6.1176-4.8663h-1.1123c-0.27808 1.5294-0.97327 2.3636-1.9465 2.3636-1.1123 0-1.5294-0.97327-1.5294-3.3369z"/><path d="m688.74 93.789c0-3.4759-1.1123-4.7273-4.7273-5.0053v-1.1123l10.984-0.69519h1.1123v35.316c0 3.3369 0.69518 4.0321 4.4492 5.0054v1.1123h-16.545v-1.1123c3.615-0.55615 4.7273-1.8075 4.7273-5.0054z"/><path d="m302.5 101.85c-0.27808-0.41711-0.97326-0.13904-0.97326-0.13904l-11.54 4.4492c-0.83423-2.2246-1.9465-4.3102-3.0588-6.1176l3.754-10.289s0.41712-0.97326 0-1.2513c-0.41711-0.27808-1.1123 0.41711-1.1123 0.41711l-6.8128 5.5615c-2.6417-2.7807-5.8396-5.1444-9.3155-6.8128-1.3904-0.55615-2.7808-1.1123-4.1711-1.5294l-2.0856-8.0642s-0.13904-0.83422-0.69518-0.83422c-0.55615 0-0.69519 0.83422-0.69519 0.83422l-1.3904 7.2299c-1.5294-0.13904-3.0588-0.27808-4.5882-0.27808-5.1444 0-9.5936 0.97326-13.626 2.7808-1.6684 0.69519-3.3369 1.6684-4.7273 2.7807-0.27807 0.13904-0.41711 0.41711-0.69519 0.55615-1.3904-3.615-2.5027-6.5348-2.7808-7.508 0.83423-0.69519 2.3636-3.3369 2.7808-5.0053 0.55615-2.5027 0.41712-3.615-0.13903-5.4225-0.41712-1.3904-1.2513-2.6417-1.2513-3.4759 0-0.69519 0.41711-1.1123 0.69519-1.3904-0.13904-0.83422-0.69519-1.2513-1.3904-1.3904-0.69519-0.13904-1.1123 0.13904-1.6684 0.13904-0.13904-0.27808-0.41711-0.27808-0.27807-1.1123 0.27807-1.3904 3.0588-2.0856 5.1444-2.9198 2.7808-1.1123 4.3102-3.0588 4.4492-6.2567 0-2.3636-1.2513-4.0321-2.9198-4.8663-0.27807 0.97326-1.6684 2.2246-2.6417 2.7807-0.97326 0.55615-2.2246 0.69519-3.1979 0.55615 0.13904-1.6684-0.55615-3.1979-1.8075-3.754-0.41711 0.69519-1.9465 1.8075-4.1711 1.6684-2.2246 0-2.3636-0.55615-5.5615-0.55615-4.5882 0-8.3422 2.7807-8.7594 6.8128-0.27807 2.6417 0.69519 4.8663 1.5294 5.9786-0.55615 0.41711-1.9465 1.6684-2.0856 2.0856-0.27807-0.41711-1.2513-0.83422-2.3636-0.13904 0.27808 0.55615 0.27808 1.2513 0.13904 1.9465-0.13904 0.69519-1.8075 3.893-2.0856 6.5348-0.27808 4.4492 2.2246 7.369 4.3102 8.2032-0.41711 0.69519-0.55615 1.5294-0.27807 2.0856 0.27807 0.41711 0.69518 0.83422 1.5294 0.83422-0.55615 0.55615-0.69519 1.3904-0.41711 2.2246 0.41711 0.97326 1.5294 2.3636 2.3636 2.3636 0 0.83422 0.27808 2.6417 0.55615 3.4759-0.27807 0.55615-0.69518 1.1123-0.55615 2.2246 0 1.1123 0.83423 2.0856 1.8075 2.3636 0.27807 0.55615 0.41711 1.2513 0.69519 1.5294 0.27807 0.41711 0.55615 0.83423 1.3904 1.2513 0.69519 0.41711 1.5294 0.83422 2.5027 0.83422 0.97326 0 1.8075 0 2.2246-0.13903 0 0.27807 0.13903 2.7808 0.27807 5.5615-2.3636 6.6738-3.615 14.321-3.615 22.524 0 14.738 4.1711 27.947 12.235 36.428 0 0 0.41712 0.55615 1.8075 1.3904 0 0 2.5027-4.3102 6.3957-9.1765 0.97327-1.2513 2.0856-2.5027 3.3369-3.615 1.9465-1.6684 3.754-3.0588 5.4225-4.3102 5.0053-3.3369 10.706-5.9786 15.989-7.0909-6.1176 3.1979-9.4545 4.8663-15.155 9.7326-3.615 3.0588-9.3155 8.6203-13.348 15.989 0.83423 0.69519 1.9465 1.2513 3.1979 1.3904 0.83423-0.97326 5.1444-8.7594 11.679-15.155 13.348-12.374 28.92-15.294 37.123-15.155 0.41711-3.3369 0.69518-6.9519 0.69518-10.567 0-5.9786-0.55615-11.54-1.8075-16.824l9.7326-10.845c-0.41711-0.41711 0.27807-1.1123 0-1.5294"/></g><g fill="#fff"><path d="m229.78 96.987c-0.55615-0.27808-2.0856-1.1123-3.3369-0.97326-1.2513 0-2.3636 0.27808-3.3369 0.97326-0.41711-0.27808-0.55615-0.83422-0.27807-1.5294 0.27807-0.69519 0.69519-0.69519 0.69519-0.69519l-0.41712-6.2567s1.8075-1.2513 2.2246-1.3904c0.41712-0.13904 0.69519-0.55615 0.69519-0.97326 0.83423 0.55615 1.9465 1.6684 2.5027 2.5027 0.55615 0.83422 0.83422 1.6684 0.97326 2.6417 0 0.97326 0 2.2246-0.13904 3.4759 0.41711 0.27808 0.69519 0.55615 0.83423 1.1123 0 0.55615-0.13904 0.69519-0.41712 1.1123"/><path d="m286.37 116.31c0-1.2513-1.5294-4.4492-2.3636-5.1444l14.738-6.5348z"/><path d="m245.91 91.842 12.513 11.262c-1.2513 0.69518-3.0588 2.5027-3.4759 4.0321z"/><path d="m253.28 114.23c-0.41712 0.69519-0.55615 1.1123-0.69519 1.8075-0.13904 0.83423 0 1.2513 0 1.9465l-3.754-2.6417c0-0.83422-0.13904-2.3636-0.27808-3.0588v-0.27808z"/><path d="m232.14 115.34c-0.27808-0.41711-1.3904-23.358-1.3904-24.193l1.2513-0.83422v-0.27808c-0.83422 0-1.9465-0.41711-2.2246-0.97326l-0.27807-6.9519c-1.2513-0.13904-2.5027-0.55615-2.9198-0.97326-0.55615-0.55615-1.1123-1.2513-0.41711-2.6417 0.55615 0.41711 2.3636 0.97326 4.0321 0.97326 0.27807 0 0.97326 0.69519 1.3904 0.83422 0.41711 0.13904 1.2513 0.55615 1.5294 0.69519 0.27808 0.13904 0.55615 0.83422 0.55615 1.1123 0.13904 0.27808 11.54 29.893 11.679 30.171 0.13904 0.27807 0.83422 5.2834 0.83422 5.7005 0 0.41711 1.8075 4.3102 2.0856 4.7273-1.5294 0-4.0321 0.83422-5.9786 2.7808-1.9465 1.9465-3.754 6.2567-4.1711 8.2032-0.13904-0.83422-5.7005-17.936-5.9786-18.353"/><path d="m246.6 143.7c-0.55615 4.5882-1.5294 8.4813-3.1979 11.262-1.1123 1.8075-4.0321 5.5615-5.1444 6.8128 1.1123-2.2246 1.9465-7.7861 1.9465-11.957 0-2.7808-0.83422-8.8984-0.13903-12.93 0.83422-4.3102 2.0856-6.8128 4.8663-9.4546 1.5294-1.3904 4.4492-3.0588 8.8984-1.9465l3.4759 6.5348c-1.8075-0.41711-4.3102 0-5.9786 1.2513-3.0588 2.5027-4.1711 5.7005-4.7273 10.428"/><path d="m247.02 152.6c0.83422-1.9465 1.9465-7.369 2.2246-9.1765 0.41711-2.3636 0.83422-5.7005 3.615-8.0642 1.3904-1.1123 3.615-1.2513 4.5882-0.97326l3.893 8.0642c0.41711 0.83423 1.5294 1.1123 2.3636 1.1123-3.754 1.1123-13.07 5.5615-16.684 9.0374"/><path d="m280.67 126.88c-0.69519 0.97327-0.41712 1.9465 0 2.6417 0.41711 0.69518 2.5027 4.5882 2.5027 4.5882 0.69519 1.8075 1.1123 2.6417 1.8075 3.754h3.615c-1.3904-3.0588-4.5882-9.0374-4.5882-9.0374l-0.27808-4.8663c-0.83422 0.55615-2.3636 1.9465-3.0588 2.9198"/><path d="m263.84 101.16c1.5294-0.27807 5.1444 0 6.2567 0.55615l-3.615-20.299z"/><path d="m233.67 82.249c-0.13904-0.27808-0.27807-0.97326-0.55615-1.1123-0.41711-0.13904-1.1123-0.55615-1.5294-0.69519-0.41711-0.13904-1.1123-0.83422-1.3904-0.83422-1.5294 0-3.3369-0.55615-4.0321-0.97326-0.69519 1.2513-0.13904 1.9465 0.41711 2.6417 0.41711 0.41711 1.8075 0.83422 2.9198 0.97326l0.27807 7.0909c0.27808 0.55615 1.3904 0.83422 2.2246 0.83422v0.27808l-1.2513 0.83422c0 0.83422 1.1123 23.775 1.3904 24.193 0.27807 0.41711 5.8396 17.519 5.9786 18.492 0.41711-1.9465 2.2246-6.2567 4.1711-8.2032 2.0856-1.9465 4.4492-2.9198 5.9786-2.7808-0.27808-0.41711-2.0856-4.3102-2.0856-4.7273s-0.69518-5.2834-0.83422-5.7005c-0.13904-0.41711-11.54-29.893-11.679-30.31"/><path d="m226.44 76.687c3.1979 0 4.7273 1.3904 5.5615 2.0856 0.13904-1.1123-0.13904-2.0856-1.1123-2.9198-0.83422-0.69519-2.3636-1.2513-4.5882-1.2513-1.5294 0-3.0588 0.41711-4.0321 1.2513-0.83423 0.69519-0.97326 1.5294-0.83423 2.7808 0.27808-0.83422 2.3636-1.9465 5.0054-1.9465"/><path d="m220.6 59.864c-0.13904 1.2513 0.27807 2.5027 0.83422 3.3369 0.27808 0.41711 1.1123 1.2513 1.6684 1.2513 0.83423 0 1.5294-1.5294 3.4759-1.5294 1.2513 0 2.0856 1.8075 3.0588 1.8075 0.83422 0 1.2513-0.69519 2.0856-0.83422 0.69518-0.13904 0.97326 0.27808 1.3904 0.69519 0.27808-0.69519 0.69519-1.1123 1.8075-1.9465 1.2513-0.97326 5.5615-1.8075 7.508-3.4759 0.97327-0.83422 1.1123-2.3636 0.83423-3.3369-0.69519 0.97326-2.6417 2.0856-4.5882 2.0856-0.97326 0-3.1979-0.41711-4.0321-0.83422 0.41712-0.69519 0.55615-1.5294 0.13904-2.2246-0.55615 0.41711-3.3369 0.69519-4.3102 0.69519s-3.0588-0.41711-4.5882-0.27808c-3.4759 0.13904-5.1444 2.5027-5.2834 4.5882"/><path d="m226.58 70.569c7.508 0.13904 10.845 3.615 10.984 6.3957 0.41711-0.83422 0.27808-1.6684 0.27808-2.6417 0-0.69519-1.1123-2.9198-1.2513-3.615 0-0.69519 0.13904-1.2513 0.27807-1.8075-0.41711 0.13904-2.0856 0.69519-2.7808 0.13904-0.69518-0.55615-0.27807-2.0856-1.2513-2.5027-0.97327-0.41711-2.5027 0.83422-3.615 0.69519-0.97326-0.13904-1.8075-1.5294-2.9198-1.5294s-1.5294 1.2513-2.7808 1.5294c-0.97327 0.27808-2.2246-0.41711-2.7808-0.27808-0.69519 0-0.97326 0.55615-1.2513 1.1123-0.27807 0.55615-0.55615 0.83422-1.2513 1.1123-0.55615 0.13904-1.5294-0.41711-1.9465-0.27808 0.27807 0.27808 0.55615 1.6684 0.13904 2.5027-0.41712 0.97326-1.2513 2.0856-1.2513 3.3369-0.13904 1.1123 0.27807 1.5294 0.55615 2.3636-0.13904-4.0321 4.3102-6.6738 10.845-6.5348"/><path d="m221.86 84.89c-0.55615 0.13904-1.6684 0.97326-2.0856 1.8075 0.13903 0.55615 0.83422 1.9465 1.3904 2.2246 0.13904-0.55615 0.83422-1.6684 1.1123-1.9465 0.41711-0.27808 0.97326-0.55615 1.2513-0.69519 0.41711-0.13904 0.55615-0.41711 0.55615-0.83422 0-0.41711 0-0.69519-0.27808-1.1123 0.41711 0 1.1123 0 1.2513-0.27808 0.27807-0.27808 0.41711-0.69519 0.41711-1.1123 0-0.41711-0.13904-0.55615-0.55615-0.55615s-1.6684-0.13904-2.2246 0c0 0 0.97326-0.55615 1.2513-0.69519 0.27807-0.13904 0.41711-0.41711 0.41711-0.69519s0-0.83422-0.13904-1.3904c-1.3904 0-3.893 1.2513-4.5882 1.9465l0.55615 1.2513h-0.97326c-0.13904 0.69519 0 1.6684 0.27807 2.2246 0.83422-0.13904 1.8075-0.13904 2.3636-0.13904"/><path d="m283.03 114.51c-0.13903-0.97326-2.5027-3.615-6.3957-6.6738-3.0588-2.3636-7.508-4.5882-11.262-4.5882-6.2567 0-8.7594 4.3102-9.3155 6.5348-0.27807 1.3904-0.27807 2.7807 0 3.615-0.97326 0.83422-1.3904 1.5294-1.5294 2.5027-0.13903 0.69519 0 1.6684 0.69519 2.3636 0-0.97326 0.55615-1.9465 1.1123-2.6417 0.55615-0.83423 1.5294-1.1123 2.3636-1.6684l0.13903 1.6684c-0.83422 0.41711-1.8075 1.3904-1.8075 1.9465v2.7808l2.0856-1.2513 0.41711 0.83422-0.83422 5.0054 1.2513-0.27808 2.2246 0.83423-2.0856 1.9465v0.69519s0.27808-0.41711 1.1123-0.41711c0.69519 0 2.6417 0.83422 2.6417 0.83422l-0.13903 0.41712h-3.754c-0.13903 0.55615 0.27808 0.83422 0.55615 1.1123 0.55615-0.13904 0.97327-0.41712 1.2513-0.41712 0.27808 0 0.97326 0.13904 1.5294 0.27808l-0.69518 0.97326s-0.41712 0.27808-0.97327 0.13904c-0.41711-0.13904-0.69518 0.41711-0.69518 0.83422 0 0.41712 0.27807 1.5294 0.27807 1.5294 0.41711 1.5294 1.9465 1.2513 2.2246 1.2513 0.97326-0.13904 4.4492-1.2513 4.4492-1.2513l-3.1979 4.5882 1.3904 4.8663c2.0856-0.83422 8.4813-3.1979 15.433-4.3102-0.69519-1.2513-0.83422-1.8075-1.8075-3.615l-3.615-8.2032 0.55615-1.2513c0.83423 0.27807 1.9465-0.27808 2.7808-0.97326 0.83422-0.69519 1.6684-1.8075 2.0856-2.5027-0.55615-0.27807-0.97326-0.27807-1.3904 0.13904-0.41712 0.27807-0.69519 0.83422-1.3904 0.55615-0.69518-0.27808-0.27807-0.97326-0.27807-1.6684 0.13903-0.69519-0.69519-0.69519-1.2513-0.13904s-1.8075 0.27808-2.5027-0.55615c-0.83423-0.83422-4.5882-3.893-5.8396-4.7273-1.9465-1.1123-4.5882-1.3904-6.3957-1.1123-1.1123 0.13904-1.9465 0.69519-2.3636 0.41711l-1.3904-2.2246 0.27807-0.13904c0.55615 0.27808 0.97326 0.55615 1.6684 0.41712 0.69519-0.27808 2.6417-0.69519 4.5882-0.69519 2.7808 0 6.2567 0.97326 7.7861 1.6684 0 1.8075 3.754 4.1711 5.4225 4.4492 1.3904 0.13904 2.2246-0.13904 3.0588-0.69519l-3.615-3.1979 1.9465-2.3636s3.0588 2.9198 3.4759 3.4759c0-0.13904-0.13904-0.69519-0.27808-1.1123m-21.69 3.754s1.5294-0.83422 3.0588-1.2513c2.2246-0.41711 4.5882 0.83423 6.2567 2.2246l-0.27808 0.55615-2.5027 0.55615c-0.41711-0.41711-1.3904-0.55615-2.3636-0.55615-0.83422 0-1.5294 0.41712-1.5294 0.41712l0.41711 0.83422-1.1123 0.27808c-0.55615-0.69519-1.2513-1.3904-1.9465-1.6684zm-3.754-5.7005c-0.69519-2.0856 1.1123-4.3102 1.8075-5.0053l1.2513 2.7807c-0.97326 0.41712-2.3636 1.5294-3.0588 2.2246m11.262-2.3636c-1.1123-0.83423-4.8663-0.69519-6.3957-0.27808l-1.1123-3.3369c0.83422-0.69518 2.5027-1.1123 4.0321-1.1123 1.5294 0 3.0588 0.41712 4.3102 0.97327zm7.369 3.3369c-1.5294-0.97327-4.5882-2.5027-5.5615-2.7808l1.3904-3.4759c1.1123 0.55615 5.2834 3.0588 5.9786 3.754z"/><path d="m275.66 104.22c1.3904 0.55615 4.3102 3.0588 5.1444 3.615l7.508-15.989z"/></g><g fill="#000000"><path d="m708.07 119.51c2.2246 0 4.3102 1.8075 4.3102 4.4492s-2.0856 4.4492-4.3102 4.4492-4.3102-1.8075-4.3102-4.4492 2.0856-4.4492 4.3102-4.4492m0 7.9251c1.8075 0 3.3369-1.3904 3.3369-3.4759s-1.5294-3.4759-3.3369-3.4759-3.3369 1.3904-3.3369 3.4759c0.13904 2.0856 1.5294 3.4759 3.3369 3.4759m-1.6684-5.8396h1.8075c1.2513 0 1.8075 0.41711 1.8075 1.3904 0 0.83423-0.55615 1.2513-1.2513 1.2513l1.2513 2.0856h-0.83422l-1.2513-2.0856h-0.69519v2.0856h-0.83422zm0.97326 2.0856h0.83423c0.55615 0 0.97326-0.13904 0.97326-0.69519s-0.55615-0.69518-0.97326-0.69518h-0.83423z"/><rect x="312.09" y="142.03" width="150.86" height="1.5294"/><rect x="483.66" y="142.03" width="217.59" height="1.5294"/><path d="m398.99 156.77h3.893v20.995h-3.893z"/><path d="m414.56 156.77h3.615l8.7594 14.877v-14.877h3.615v20.995h-3.615l-8.7594-14.877v14.877h-3.615z"/><path d="m443.06 171.51c1.5294 2.2246 3.754 3.1979 6.3957 3.1979 1.9465 0 4.4492-0.69518 4.4492-2.6417 0-1.6684-1.5294-2.0856-4.3102-2.7808l-2.3636-0.55615c-3.3369-0.83422-6.2567-1.9465-6.2567-5.8396 0-4.4492 4.1711-6.5348 8.0642-6.5348 3.615 0 6.5348 1.3904 8.7594 4.1711l-3.3369 2.5027c-0.97326-1.9465-2.9198-3.0588-5.5615-3.0588-2.2246 0-4.0321 0.83423-4.0321 2.3636 0 1.8075 1.9465 2.0856 4.3102 2.6417l2.5027 0.55615c3.0588 0.69519 6.1176 1.9465 6.1176 5.9786 0 5.1444-4.8663 6.9519-9.1765 6.9519-3.4759 0-7.0909-1.5294-9.0374-4.4492z"/><path d="m485.05 171.37c0 4.3102-3.3369 6.9519-8.4813 6.9519-5.0054 0-8.4813-2.7808-8.4813-6.9519v-14.46h3.893v13.487c0 2.5027 1.1123 4.1711 4.4492 4.1711 3.4759 0 4.4492-1.6684 4.4492-4.1711v-13.487h3.893v14.46z"/><path d="m496.32 156.77h8.7594c4.4492 0 7.0909 2.6417 7.0909 6.3957 0 4.7273-3.1979 5.8396-4.1711 6.2567l4.7273 8.4813h-4.5882l-4.0321-7.7861h-3.754v7.7861h-3.893v-21.134zm3.893 9.8717h4.3102c1.9465 0 3.4759-1.1123 3.4759-3.1979 0-1.9465-1.2513-3.1979-4.0321-3.1979h-3.754z"/><path d="m527.46 156.77h4.5882l6.9519 20.995h-4.1711l-1.2513-4.0321h-7.9251l-1.2513 4.0321h-4.1711zm2.2246 3.893l-2.9198 9.5936h5.8396z"/><path d="m547.9 156.77h3.615l8.7594 14.877v-14.877h3.615v20.995h-3.4759l-8.7594-14.877v14.877h-3.754z"/><path d="m588.78 163.86c-0.27807-2.3636-2.2246-3.893-4.5882-3.893-4.1711 0-5.9786 3.754-5.9786 7.369 0 3.615 1.8075 7.369 5.9786 7.369 2.7808 0 4.3102-1.8075 5.0054-4.3102l3.615 1.6684c-1.6684 4.1711-4.4492 6.2567-8.6203 6.2567-6.6738 0-10.011-5.1444-10.011-10.984 0-5.9786 3.754-10.984 10.011-10.984 4.1711 0 7.369 2.2246 8.4813 6.5348z"/><path d="m601.29 156.77h14.877v3.615h-10.845v4.7273h10.011v3.4759h-10.011v5.4225h11.679v3.615h-15.572v-20.856z"/></g></g></svg>
