<svg xmlns="http://www.w3.org/2000/svg" viewBox="0 0 307.76 350.12"><title>USAA logo</title><path d="M359.12,592.5v57.26c0,32,19.9,37.3,36.57,37.3,24.65,0,36.07-16,36.07-37.6v-57H415.45v58.88c0,7.42-2.47,21.31-19.75,21-15.72-.25-18.61-14.44-18.61-23.55V592.5h-18" transform="translate(-358.12 -336.94)" style="fill:#000000"/><path d="M499.91,596.26a57.16,57.16,0,0,0-22.24-5.07c-14.75,0-33.26,7.41-33.26,27.72,0,14.07,10.55,20.71,17.74,24.15,3.81,1.82,8.46,3.86,12.29,5.88,2,1.05,9.81,3.65,9.81,12,0,8.93-9.93,12-14.4,12a52.66,52.66,0,0,1-26.73-7.11l1.67,17.87s6.5,3.23,25.95,3.28c18.55-.06,31.93-11.76,31.93-27.88,0-12.4-8.63-19.75-16-23.26-5.8-2.77-9.15-4.3-14.19-6.63s-10.24-6.34-10.24-12.56c0-6.69,6.23-11.49,15.41-11.49,13.51,0,18.93,6,22.24,7.86V596.26" transform="translate(-358.12 -336.94)" style="fill:#000000"/><path d="M632.64,592.37H613.07l3.12,7.74-30.39,79.61-31.35-87.35H534.87l3.1,7.74L505.6,685h17.68l5.65-16.17h33.49L568.06,685h33.42l5.68-16.17h33.49L646.28,685h19.6Zm-99.29,63.91,13-36.27L558,656.28Zm78.22,0,13-36.27,11.63,36.27H611.57" transform="translate(-358.12 -336.94)" style="fill:#000000"/><path d="M358.12,488.33l.84,28.94s7.23-5.25,15.33-5.25,17.25,5.73,17.25,5.73l72.54,41.6,6.14-26.14-78.68-45.13s-9.12-5.68-17.25-5.68-16.17,5.93-16.17,5.93" transform="translate(-358.12 -336.94)" style="fill:#000000"/><path d="M358.12,450.49l.84,28.94s7.23-5.25,15.33-5.25,17.25,5.73,17.25,5.73L471.91,526,478,499.85l-86.48-49.61s-9.12-5.69-17.25-5.69-16.17,5.94-16.17,5.94" transform="translate(-358.12 -336.94)" style="fill:#000000"/><path d="M358.12,412.66l.84,28.95s7.23-5.26,15.33-5.26,17.25,5.73,17.25,5.73l88.2,50.59,6.12-26.14-94.32-54.11s-9.12-5.68-17.25-5.68-16.17,5.93-16.17,5.93" transform="translate(-358.12 -336.94)" style="fill:#000000"/><path d="M509.3,366.61l8.08,34.15,110.46,63.33s8.68,5.71,17.21,5.71,16.19-6,16.19-6l-.84-28.94s-6.93,5.25-15.35,5.25-17.21-5.71-17.21-5.71l-85.46-49-5.9-22a1.53,1.53,0,0,1,1.16-1.43l14.46-4.44a3.06,3.06,0,0,1,3.07,3l.75,1.58c.54.26,2.72-.78,2.87-.86v-8.65a10.85,10.85,0,0,0-11-10.85H533.33a8.9,8.9,0,0,0-8.24-4.87H497.62a9.28,9.28,0,0,0-9,6.71l-19.07,75.7-78-44.76s-8.44-5.72-17.25-5.72-16.17,5.95-16.17,5.95l.84,29a26.76,26.76,0,0,1,15.33-5.25c8.82,0,17.25,5.74,17.25,5.74l96,55,21.76-92.68" transform="translate(-358.12 -336.94)" style="fill:#000000"/><path d="M519.54,410.13l8.06,34.31,100.24,57.47s9,5.72,17.21,5.72,16.19-6,16.19-6l-.83-28.94A26.46,26.46,0,0,1,645.05,478c-8.94,0-17.21-5.71-17.21-5.71l-108.3-62.14" transform="translate(-358.12 -336.94)" style="fill:#000000"/><path d="M529.81,453.85l8.08,34.32,89.95,51.56s9,5.72,17.21,5.72,16.19-6,16.19-6l-.84-28.94a26.35,26.35,0,0,1-15.35,5.26c-8.94,0-17.21-5.71-17.21-5.71l-98-56.25" transform="translate(-358.12 -336.94)" style="fill:#000000"/><path d="M540.1,497.62l8.05,34.26,79.69,45.69s9,5.72,17.21,5.72,16.19-6,16.19-6l-.84-28.92a26.45,26.45,0,0,1-15.35,5.24c-8.94,0-17.21-5.71-17.21-5.71L540.1,497.62" transform="translate(-358.12 -336.94)" style="fill:#000000"/></svg>